<svg xmlns="http://www.w3.org/2000/svg" xmlns:xlink="http://www.w3.org/1999/xlink" aria-hidden="true" role="img" width="1em" height="1em" preserveAspectRatio="xMidYMid meet" viewBox="0 0 512 512" fill="#00ED64"><path d="M256 56C132.3 56 32 156.3 32 280s100.3 224 224 224 224-100.3 224-224S379.7 56 256 56zm105.8 340.9c-2.6 3.2-8.2 4.3-12.5 1.9l-2.4-1.4c-4.2-2.4-10-2.4-14.2 0l-2.4 1.4c-4.3 2.4-9.9 1.3-12.5-1.9-21.7-26.4-46.6-52.8-46.6-94.9 0-42.1 24.9-68.5 46.6-94.9 2.6-3.2 8.2-4.3 12.5-1.9l2.4 1.4c4.2 2.4 10 2.4 14.2 0l2.4-1.4c4.3-2.4 9.9-1.3 12.5 1.9 21.7 26.4 46.6 52.8 46.6 94.9 0 42.1-24.9 68.5-46.6 94.9z" fill="#439934"/></svg>