<svg xmlns="http://www.w3.org/2000/svg" viewBox="0 0 24 24" width="100" height="100">
    <path fill="#3776AB" d="M12 0c-1.534 0-2.988.14-4.252.404-3.774.778-4.438 2.412-4.438 5.438v4.063h8.875v1.375H2.313c-3.124 0-4.407 1.886-5.063 4.188-.75 2.572-.719 4.188 0 6.75.624 2.172 1.938 4.188 5.063 4.188h3.563v-4.75c0-3.25 2.813-6.125 6.438-6.125h8.875c3.438 0 5.563-2.813 5.563-5.438 0-2.623-1.844-4.905-5.563-5.438-1.094-.156-2.422-.406-4.252-.406zM9.563 2.438c.75 0 1.375.625 1.375 1.375s-.625 1.375-1.375 1.375-1.375-.625-1.375-1.375.625-1.375 1.375-1.375z"/>
    <path fill="#FFD43B" d="M12 24c1.532 0 2.988-.14 4.252-.404 3.774-.778 4.438-2.412 4.438-5.438v-4.063h-8.875v-1.375h8.875c3.124 0 4.407-1.886 5.063-4.188.75-2.572.719-4.188 0-6.75-.624-2.172-1.938-4.188-5.063-4.188h-3.563v4.75c0 3.25-2.813 6.125-6.438 6.125H2.313c-3.438 0-5.563 2.813-5.563 5.438 0 2.623 1.844 4.905 5.563 5.438 1.094.156 2.422.406 4.252.406zM14.438 21.563c-.75 0-1.375-.625-1.375-1.375s.625-1.375 1.375-1.375 1.375.625 1.375 1.375-.625 1.375-1.375 1.375z"/>
</svg>
