<svg xmlns="http://www.w3.org/2000/svg" width="2500" height="2500" preserveAspectRatio="xMinYMin meet" viewBox="0 0 256 256">
    <path fill="#3776AB" d="M0 0h256v256H0V0z"/>
    <path fill="#FFD43B" d="M127.5 30c-48.7 0-45.6 21.1-45.6 21.1l.1 21.9h46.4v6.6H52.8s-31.1-3.5-31.1 45.5c0 49 27.1 47.2 27.1 47.2h16.2v-22.7s-.9-27.1 26.7-27.1h46c0 0 25.8.4 25.8-24.9V52.7s3.9-22.7-36.1-22.7zm-25.5 13.2c4.6 0 8.4 3.8 8.4 8.4c0 4.6-3.8 8.4-8.4 8.4c-4.6 0-8.4-3.8-8.4-8.4c0-4.6 3.8-8.4 8.4-8.4z"/>
    <path fill="#3776AB" d="M128.5 226c48.7 0 45.6-21.1 45.6-21.1l-.1-21.9h-46.4v-6.6h75.6s31.1 3.5 31.1-45.5c0-49-27.1-47.2-27.1-47.2h-16.2v22.7s.9 27.1-26.7 27.1h-46c0 0-25.8-.4-25.8 24.9v44.9s-3.9 22.7 36.1 22.7zm25.5-13.2c-4.6 0-8.4-3.8-8.4-8.4c0-4.6 3.8-8.4 8.4-8.4c4.6 0 8.4 3.8 8.4 8.4c0 4.6-3.8 8.4-8.4 8.4z"/>
</svg>
