<svg xmlns="http://www.w3.org/2000/svg" viewBox="0 0 448 512" fill="#764ABC"><path d="M177.381 169.733c9.447-.978 16.614-9.122 16.288-18.896-.325-9.773-8.47-17.592-18.243-17.592h-.651c-10.1.326-17.918 8.796-17.592 18.895.326 9.773 8.47 17.592 18.243 17.592h.651zm167.193 89.563c-14.396-98.337-129.849-159.262-195.389-91.975-32.967 33.97-25.446 88.287-25.446 88.287s-29.622-21.924-40.068-42.346c-14.396-28.766-15.279-76.459-12.33-98.337 2.922-22.285 33.011-100.811 119.79-100.811 98.615 0 195.364 79.825 203.187 100.811 7.824 20.986 6.105 61.049-49.744 144.371zm-481.852 129.533c-8.47-3.247-10.447-13.183-6.275-20.924 8.794-15.682 19.241-29.834 30.43-42.346l-20.605-17.592c-5.794-4.273-4.929-12.843 1.629-16.088L208.93 230.47c13.857-7.17 30.589-1.787 37.351 12.843 7.498 14.627 1.721 32.789-12.975 40.604l-176.022 93.931c-1.135.326-2.27.977-3.406.977-2.922 0-5.794-.977-7.824-2.923-14.722-10.397-28.904-22.285-42.435-35.468-2.922-3.572-2.597-9.122.977-12.369l31.083-31.371c3.247-3.246 8.145-3.572 11.718-.977 4.929 3.897 9.858 7.498 14.722 10.72l31.409-16.088-31.409-16.088c-21.57-14.722-25.133-44.204-9.451-65.448 15.681-21.243 45.489-26.172 67.058-11.776l12.33 7.497c4.273-4.597 8.47-9.469 12.068-14.395 44.853-62.445 13.118-148.8-54.395-178.96-67.512-30.158-139.713-2.27-172.89 62.771-26.497 52.342-8.145 113.066 8.47 138.199 8.47 13.183-13.396 26.815-19.5 23.891-15.681-7.825-93.011-59.199-72.76-135.658 25.446-94.583 134.784-142.199 224.72-110.829 89.936 31.371 134.457 126.836 101.445 215.747-15.681 41.37-50.941 71.851-89.611 86.899-38.671 14.722-80.456 15.681-114.368 5.794-8.47-2.922-13.118-11.718-10.196-20.271 3.246-8.47 11.717-13.183 20.271-10.196 27.474 8.145 61.468 7.498 93.011-4.928 31.894-12.369 60.473-37.026 73.264-70.874 27.474-74.447-6.594-154.597-80.456-180.068-73.863-25.472-153.946 5.521-179.717 79.642-12.068 34.816-4.273 70.874 14.722 98.989 7.824-1.14 15.366-2.271 22.881-3.572 43.714-7.172 84.403-23.566 120.441-48.476 9.447-6.276 22.239-3.648 28.191 5.794 6.276 9.447 3.648 22.239-5.794 28.191-42.062 28.517-89.289 47.434-140.067 55.579-14.396 2.271-28.517 3.897-42.713 4.928-9.469 40.068-29.295 82.087-55.467 103.981-27.799 23.24-93.011 39.003-96.583-34.49-1.302-21.57-11.066-41.044-26.172-55.467-21.57-20.924-51.593-32.642-79.066-32.642-47.76 0-88.638 36.374-92.911 83.483-4.273 46.784 29.622 88.313 76.707 97.686 47.434 9.469 71.851-15.366 80.947-28.191 9.447-13.183 24.186-21.001 39.648-21.001h.651c27.148 0 49.419 21.57 50.071 48.719.977 27.474-20.924 50.396-48.393 50.396h-.651c-14.722 0-28.84-6.276-38.671-17.266-36.7 5.794-75.045-9.122-91.608-42.995-16.614-33.011-13.118-83.158 29.946-112.749-4.273-13.508-6.594-27.799-6.594-42.346 0-59.85 37.026-111.117 89.611-133.077-12.068-26.172-17.918-58.488-12.068-90.511 7.172-43.389 33.011-79.763 68.478-102.374 105.921-65.448 238.672-29.295 304.12 72.108 44.691 69.573 49.094 160.084 11.066 234.724-5.197 10.196-17.592 14.396-27.799 9.122-10.196-5.197-14.396-17.592-9.122-27.799 30.807-61.143 27.148-136.514-9.858-194.677-54.069-84.729-168.111-114.694-257.722-59.524-27.148 17.266-47.434 44.691-52.895 77.702-5.521 34.164 4.273 67.849 20.924 92.366 3.246 4.928 4.273 10.72 2.922 16.614-1.302 5.794-4.928 10.72-10.196 13.508-40.719 21.57-66.165 63.916-66.165 109.846 0 68.971 56.577 124.897 125.873 124.897 42.995 0 82.969-21.243 106.835-56.903 4.928-7.498 13.118-11.718 21.896-11.718 8.145 0 16.288 3.897 21.243 10.72 8.145 11.718 5.197 27.799-6.276 35.949-32.316 48.719-87.009 77.702-143.698 77.702-94.257 0-171.29-76.381-171.29-169.986 0-42.995 16.288-84.403 44.853-115.774-16.288-43.714-20.271-120.766 51.919-171.056 83.483-58.162 198.962-36.7 252.381 47.434 26.172 40.719 34.49 89.936 24.837 136.839 42.995-23.566 73.538-66.561 82.969-115.774 13.67-71.525-29.295-143.051-98.592-164.295-69.248-21.243-143.051 15.681-168.484 84.078-10.72 28.191-10.72 58.814-2.597 86.288 2.922 10.196-2.922 20.924-13.118 23.891-1.629.651-3.572.651-5.197.651-8.47 0-16.288-5.521-18.569-14.069-10.196-35.623-10.196-74.773 3.572-111.442 33.011-89.936 127.269-138.004 217.653-110.503 89.936 27.474 146.949 121.731 128.706 213.772-11.066 59.524-46.457 109.846-96.583 138.362 12.068 21.896 19.567 46.457 19.567 72.434.001 83.484-67.849 151.333-151.333 151.333z"/></svg>