<svg xmlns="http://www.w3.org/2000/svg" viewBox="0 0 128 128" fill="#3178C6"><path d="M2,63.91v62.5h125V1.41H2Zm100.73-5a15.56,15.56,0,0,1,7.82,4.5,20.58,20.58,0,0,1,3,4c0,.16-5.4,3.81-8.69,5.85-.12.08-.6-.44-1.13-1.23a7.09,7.09,0,0,0-5.87-3.53c-3.79-.26-6.23,1.73-6.21,5a4.58,4.58,0,0,0,.54,2.34c.83,1.73,2.38,2.76,7.24,4.86,8.95,3.85,12.78,6.39,15.16,10,2.66,4,3.25,10.46,1.45,15.24-2,5.2-6.9,8.73-13.83,9.9a38.32,38.32,0,0,1-9.52-.1A23,23,0,0,1,80.31,105.1c-.38-.58-1.09-1.28-1.09-1.28a21.13,21.13,0,0,1,3.7-7.37c1.86-2.36,2.79-2.86,4.84-2.76,1.57.05,2.36.26,3.57,1.05,2.79,1.82,5.6,2.61,8.39,2.35a6.59,6.59,0,0,0,5.39-3.33c.71-1.47.71-3.86,0-5.07-1.57-2.61-4.84-4.06-13.4-6.19-8.85-2.24-12.67-4.37-15.94-8.82a19.2,19.2,0,0,1-3.07-11.4,16.48,16.48,0,0,1,5.5-12.77c3.45-3.17,7.64-4.48,13.67-4.48a37.28,37.28,0,0,1,7.42.79ZM57.61,60.46c0-4.27,0-4.32,2.19-4.37,1.82,0,2.95,0,4.62.1l-.1,4.27L64.42,82c0,13.1,0,21.93.1,21.93,0,0,1.47,0,3.19-.1,3-.15,3.14-.15,3.14-.83s.1-9.09.1-23.94V60.46h9.84V56.19H57.61Z"/></svg>